<svg width="1024" height="1024" viewBox="0 0 1024 1024" fill="none" xmlns="http://www.w3.org/2000/svg">
<path d="M760 164C815.228 164 860 208.772 860 264V760C860 815.228 815.228 860 760 860H264C208.772 860 164 815.228 164 760V264C164 208.772 208.772 164 264 164H760ZM454.666 357.333C443.621 357.333 434.666 366.287 434.666 377.333V414.666C434.666 425.712 443.621 434.666 454.666 434.666H338.667C327.621 434.666 318.667 443.62 318.667 454.666V647.333C318.667 658.011 327.322 666.666 338 666.666C348.678 666.666 357.334 658.011 357.334 647.333V608.666C357.334 597.989 365.99 589.333 376.667 589.333C387.344 589.333 396 597.989 396 608.666V647.333C396 658.011 404.655 666.666 415.333 666.666C426.011 666.666 434.667 658.011 434.667 647.333V608.667C434.667 597.989 443.322 589.333 454 589.333C464.678 589.333 473.334 597.989 473.334 608.667V646.666C473.334 657.712 482.288 666.666 493.334 666.666H530.667C541.712 666.666 550.667 657.712 550.667 646.666V608.667C550.667 597.989 559.322 589.333 570 589.333C580.678 589.333 589.334 597.989 589.334 608.667V647.333C589.334 658.01 597.99 666.666 608.667 666.666C619.344 666.666 628 658.01 628 647.333V608.667C628 597.989 636.655 589.333 647.333 589.333C658.011 589.333 666.667 597.989 666.667 608.667V647.333C666.667 658.011 675.322 666.666 686 666.666C696.678 666.666 705.334 658.011 705.334 647.333V454.666C705.334 443.621 696.379 434.666 685.334 434.666H569.333C580.379 434.666 589.333 425.712 589.333 414.666V377.333C589.333 366.287 580.379 357.333 569.333 357.333H454.666Z" fill="{{COLOR_FOREGROUND}}"/>
</svg>
