<svg width="1024" height="741" viewBox="0 0 1024 741" fill="none" xmlns="http://www.w3.org/2000/svg">
<path d="M516.765 713.801L285.062 552.36V186.049L516.765 26.3496C547.318 26.3496 591.115 49.46 591.115 77.961V662.162C591.142 690.69 547.346 713.801 516.765 713.801ZM259.293 546.942H92.6487C62.096 546.942 37.3496 510.396 37.3496 481.868V258.228C37.3496 229.754 62.1236 189.256 92.6487 189.256H259.293V546.942Z" fill="{{COLOR_FOREGROUND}}"/>
<g opacity="0.5">
<path d="M860.785 50.6704C849.513 39.4002 831.25 39.4002 819.978 50.6704C808.705 61.9405 808.705 80.1993 819.978 91.4695C966.185 237.703 966.185 475.735 819.978 621.97C808.705 633.24 808.705 651.499 819.978 662.769C831.252 674.041 849.513 674.041 860.785 662.769C1029.54 493.994 1029.54 219.444 860.785 50.6704Z" fill="{{COLOR_FOREGROUND}}"/>
</g>
<g opacity="0.5">
<path d="M779.115 132.267C767.843 120.997 749.58 120.997 738.308 132.267C727.035 143.537 727.035 161.796 738.308 173.066C839.536 274.33 839.536 439.107 738.308 540.37C727.035 551.64 727.035 569.899 738.308 581.169C749.582 592.441 767.843 592.441 779.115 581.169C902.833 457.419 902.833 256.015 779.115 132.267Z" fill="{{COLOR_FOREGROUND}}"/>
</g>
<path d="M697.555 213.92C686.283 202.65 668.02 202.65 656.748 213.92C645.476 225.19 645.476 243.449 656.748 254.719C712.997 310.958 712.997 402.475 656.693 458.772C645.42 470.042 645.42 488.299 656.693 499.571C667.965 510.843 686.227 510.843 697.5 499.571C776.296 420.789 776.296 292.645 697.555 213.92Z" fill="{{COLOR_FOREGROUND}}"/>
</svg>
