<svg width="1024" height="1060" viewBox="0 0 1024 1060" fill="none" xmlns="http://www.w3.org/2000/svg">
<path d="M952.61 368.192C931.944 318.47 890.029 264.783 857.202 247.813C880.614 293.156 896.861 341.852 905.366 392.169L905.452 392.967C851.68 258.905 760.495 204.852 686.024 87.1484C682.177 81.1485 678.442 75.0776 674.821 68.9389C672.954 65.7327 671.206 62.4587 669.581 59.1235C666.491 53.1421 664.11 46.8204 662.486 40.2867C662.488 39.9851 662.379 39.6933 662.18 39.4667C661.981 39.2402 661.705 39.0949 661.406 39.0584C661.113 38.9805 660.804 38.9805 660.511 39.0584C660.452 39.0584 660.352 39.1698 660.278 39.1957C660.203 39.218 660.044 39.3293 659.936 39.3776L660.118 39.0584C540.663 109.006 500.128 238.488 496.399 303.255C448.694 306.533 403.084 324.112 365.518 353.698C361.598 350.378 357.501 347.274 353.246 344.398C342.411 306.468 341.949 266.326 351.91 228.157C308.041 249.408 269.06 279.534 237.435 316.629H237.212C218.365 292.738 219.689 213.959 220.769 197.501C215.194 199.743 209.871 202.569 204.89 205.932C188.252 217.808 172.697 231.133 158.407 245.75C142.125 262.26 127.254 280.104 113.95 299.095V299.165V299.08C83.3752 342.429 61.6882 391.405 50.1404 443.179L49.5059 446.319C47.7506 456.186 46.1917 466.088 44.8301 476.017C44.8301 476.374 44.7559 476.704 44.7187 477.06C40.5554 498.697 37.9757 520.609 37 542.621V545.078C37.3191 911.203 433.862 1139.68 750.776 956.342C811.09 921.45 863 873.731 902.834 816.561C942.669 759.391 969.456 694.167 981.3 625.501C982.097 619.367 982.747 613.292 983.459 607.095C993.254 526.134 982.649 444.009 952.61 368.192ZM404.464 740.466C406.687 741.535 408.773 742.689 411.055 743.706L411.385 743.917C409.061 742.802 406.754 741.651 404.464 740.466ZM905.489 393.078V392.622L905.574 393.126L905.489 393.078Z" fill="url(#paint0_linear_53_25)"/>
<path d="M952.61 368.193C931.944 318.47 890.029 264.784 857.202 247.813C880.614 293.157 896.861 341.852 905.366 392.169V392.622L905.452 393.126C942.108 498.025 936.806 613.031 890.653 714.111C836.146 831.065 704.208 950.939 497.687 945.109C274.541 938.79 78.0207 773.208 41.2824 556.33C34.5953 522.13 41.2824 504.792 44.6445 476.997C40.0573 498.586 37.498 520.556 37 542.621V545.078C37.3191 911.203 433.862 1139.68 750.776 956.342C811.09 921.45 863 873.731 902.834 816.561C942.669 759.391 969.456 694.167 981.3 625.501C982.097 619.367 982.747 613.292 983.459 607.095C993.254 526.134 982.649 444.01 952.61 368.193Z" fill="url(#paint1_radial_53_25)"/>
<path d="M952.61 368.193C931.944 318.47 890.029 264.784 857.202 247.813C880.614 293.157 896.861 341.852 905.366 392.169V392.622L905.452 393.126C942.108 498.025 936.806 613.031 890.653 714.111C836.146 831.065 704.208 950.939 497.687 945.109C274.541 938.79 78.0207 773.208 41.2824 556.33C34.5953 522.13 41.2824 504.792 44.6445 476.997C40.0573 498.586 37.498 520.556 37 542.621V545.078C37.3191 911.203 433.862 1139.68 750.776 956.342C811.09 921.45 863 873.731 902.834 816.561C942.669 759.391 969.456 694.167 981.3 625.501C982.097 619.367 982.747 613.292 983.459 607.095C993.254 526.134 982.649 444.01 952.61 368.193Z" fill="url(#paint2_radial_53_25)"/>
<path d="M721.496 424.098C722.528 424.822 723.485 425.545 724.454 426.269C712.508 405.085 697.637 385.691 680.279 368.656C532.465 220.817 641.541 48.1021 659.936 39.3295L660.118 39.0586C540.662 109.006 500.128 238.488 496.398 303.255C501.946 302.873 507.442 302.405 513.113 302.405C555.498 302.484 597.108 313.785 633.71 335.16C670.311 356.535 700.6 387.221 721.496 424.098Z" fill="url(#paint3_radial_53_25)"/>
<path d="M513.423 453.623C512.637 465.454 470.84 506.252 456.227 506.252C320.989 506.252 299.035 588.063 299.035 588.063C305.025 656.953 353.029 713.693 411.057 743.707C413.707 745.084 416.397 746.323 419.084 747.537C423.683 749.577 428.339 751.484 433.048 753.255C452.963 760.304 473.821 764.328 494.928 765.193C731.968 776.311 777.887 481.737 606.828 396.256C647.181 391.004 688.047 400.927 721.499 424.099C700.603 387.222 670.314 356.536 633.712 335.161C597.111 313.786 555.501 302.485 513.115 302.406C507.471 302.406 501.949 302.874 496.401 303.256C448.696 306.535 403.086 324.113 365.52 353.699C372.771 359.837 380.958 368.034 398.199 385.027C430.469 416.822 513.238 449.756 513.423 453.623Z" fill="url(#paint4_radial_53_25)"/>
<path d="M513.423 453.623C512.637 465.454 470.84 506.252 456.227 506.252C320.989 506.252 299.035 588.063 299.035 588.063C305.025 656.953 353.029 713.693 411.057 743.707C413.707 745.084 416.397 746.323 419.084 747.537C423.683 749.577 428.339 751.484 433.048 753.255C452.963 760.304 473.821 764.328 494.928 765.193C731.968 776.311 777.887 481.737 606.828 396.256C647.181 391.004 688.047 400.927 721.499 424.099C700.603 387.222 670.314 356.536 633.712 335.161C597.111 313.786 555.501 302.485 513.115 302.406C507.471 302.406 501.949 302.874 496.401 303.256C448.696 306.535 403.086 324.113 365.52 353.699C372.771 359.837 380.958 368.034 398.199 385.027C430.469 416.822 513.238 449.756 513.423 453.623Z" fill="url(#paint5_radial_53_25)"/>
<path d="M343.347 337.882C346.661 339.99 349.933 342.163 353.162 344.399C342.325 306.469 341.864 266.326 351.826 228.157C307.956 249.41 268.975 279.536 237.348 316.63C239.667 316.567 308.657 315.327 343.347 337.882Z" fill="url(#paint6_radial_53_25)"/>
<path d="M41.3434 556.33C78.0446 773.208 274.602 938.79 497.748 945.11C704.269 950.951 836.204 831.065 890.714 714.111C936.867 613.031 942.169 498.025 905.513 393.126V392.674C905.513 392.317 905.439 392.106 905.513 392.217L905.598 393.015C922.472 503.171 866.44 609.893 778.851 682.056L778.58 682.672C607.918 821.665 444.589 766.532 411.532 744.025C409.206 742.913 406.899 741.764 404.611 740.578C305.106 693.015 264 602.356 272.809 524.609C249.189 524.957 225.975 518.448 205.978 505.871C185.982 493.293 170.063 475.186 160.149 453.745C186.269 437.742 216.052 428.696 246.659 427.468C277.267 426.239 307.679 432.87 334.997 446.727C391.319 472.294 455.409 474.813 513.564 453.745C513.382 449.878 430.613 416.932 398.339 385.152C381.098 368.156 372.916 359.969 365.664 353.824C361.746 350.502 357.649 347.397 353.392 344.521C350.568 342.595 347.392 340.509 343.577 338.004C308.887 315.449 239.897 316.689 237.615 316.752H237.396C218.548 292.861 219.873 214.081 220.953 197.627C215.376 199.866 210.053 202.691 205.074 206.054C188.435 217.93 172.88 231.255 158.59 245.873C142.251 262.337 127.318 280.14 113.948 299.095V299.166V299.08C83.3731 342.43 61.6861 391.405 50.1383 443.18C49.9083 444.148 33.0087 518.018 41.3434 556.33Z" fill="url(#paint7_radial_53_25)"/>
<path d="M680.303 368.656C697.664 385.711 712.535 405.127 724.478 426.332C726.944 428.167 729.323 430.116 731.607 432.173C839.432 531.566 782.937 672.07 778.728 682.071C866.318 609.904 922.297 503.185 905.475 393.026C851.678 258.905 760.493 204.852 686.022 87.1484C682.175 81.1485 678.44 75.0776 674.818 68.9389C672.952 65.7327 671.204 62.4587 669.579 59.1235C666.489 53.1421 664.107 46.8204 662.483 40.2867C662.486 39.9851 662.377 39.6933 662.178 39.4667C661.978 39.2402 661.703 39.0949 661.403 39.0584C661.11 38.9805 660.802 38.9805 660.509 39.0584C660.45 39.0584 660.35 39.1698 660.275 39.1957C660.201 39.218 660.042 39.3293 659.934 39.3776C641.539 48.102 532.463 220.816 680.303 368.656Z" fill="url(#paint8_radial_53_25)"/>
<path d="M731.536 432.11C729.251 430.054 726.873 428.105 724.407 426.269C723.439 425.545 722.481 424.822 721.45 424.098C687.997 400.927 647.132 391.004 606.778 396.255C777.834 481.784 731.941 776.31 494.879 765.192C473.771 764.327 452.913 760.303 432.999 753.254C428.288 751.489 423.631 749.582 419.035 747.536C416.344 746.307 413.657 745.083 411.008 743.706L411.338 743.917C444.395 766.484 607.673 821.617 778.387 682.561L778.658 681.949C782.914 672.007 839.409 531.47 731.536 432.11Z" fill="url(#paint9_radial_53_25)"/>
<path d="M299.034 588.062C299.034 588.062 320.988 506.25 456.226 506.25C470.839 506.25 512.673 465.452 513.422 453.622C455.267 474.691 391.177 472.171 334.856 446.601C307.536 432.745 277.123 426.116 246.516 427.345C215.908 428.574 186.125 437.62 160.004 453.622C169.918 475.064 185.837 493.17 205.833 505.748C225.829 518.325 249.044 524.834 272.664 524.486C263.854 602.248 304.96 692.907 404.466 740.455C406.688 741.524 408.774 742.678 411.056 743.694C352.98 713.692 305.024 656.951 299.034 588.062Z" fill="url(#paint10_radial_53_25)"/>
<path d="M952.61 368.192C931.944 318.47 890.029 264.783 857.202 247.813C880.614 293.156 896.861 341.852 905.366 392.169L905.452 392.967C851.68 258.905 760.495 204.852 686.024 87.1484C682.177 81.1485 678.442 75.0776 674.821 68.9389C672.954 65.7327 671.206 62.4587 669.581 59.1235C666.491 53.1421 664.11 46.8204 662.486 40.2867C662.488 39.9851 662.379 39.6933 662.18 39.4667C661.981 39.2402 661.705 39.0949 661.406 39.0584C661.113 38.9805 660.804 38.9805 660.511 39.0584C660.452 39.0584 660.352 39.1698 660.278 39.1957C660.203 39.218 660.044 39.3293 659.936 39.3776L660.118 39.0584C540.663 109.006 500.128 238.488 496.399 303.255C501.947 302.873 507.443 302.405 513.113 302.405C555.499 302.483 597.108 313.785 633.71 335.159C670.312 356.534 700.601 387.22 721.497 424.098C688.045 400.926 647.179 391.003 606.825 396.255C777.885 481.784 731.991 776.31 494.926 765.192C473.819 764.326 452.96 760.302 433.046 753.254C428.335 751.489 423.678 749.582 419.082 747.535C416.395 746.307 413.705 745.082 411.055 743.706L411.385 743.917C409.061 742.802 406.754 741.651 404.464 740.466C406.687 741.535 408.773 742.689 411.055 743.706C352.979 713.692 305.022 656.951 299.033 588.062C299.033 588.062 320.987 506.25 456.224 506.25C470.838 506.25 512.671 465.452 513.421 453.622C513.236 449.755 430.467 416.809 398.197 385.025C380.956 368.033 372.769 359.847 365.518 353.698C361.598 350.378 357.501 347.274 353.246 344.398C342.411 306.468 341.949 266.326 351.91 228.157C308.041 249.408 269.06 279.534 237.435 316.629H237.212C218.365 292.738 219.689 213.959 220.769 197.501C215.194 199.743 209.871 202.569 204.89 205.932C188.252 217.808 172.697 231.133 158.407 245.75C142.125 262.26 127.254 280.104 113.95 299.095V299.165V299.08C83.3752 342.429 61.6882 391.405 50.1404 443.179L49.5059 446.319C48.6078 450.505 44.5963 471.757 44.0174 476.322C44.0174 476.667 44.0174 475.965 44.0174 476.322C40.3482 498.26 38.0048 520.4 37 542.621V545.078C37.3191 911.203 433.862 1139.68 750.776 956.342C811.09 921.45 863 873.731 902.834 816.561C942.669 759.391 969.456 694.167 981.3 625.501C982.097 619.367 982.747 613.292 983.459 607.095C993.254 526.134 982.649 444.009 952.61 368.192Z" fill="url(#paint11_linear_53_25)"/>
<defs>
<linearGradient id="paint0_linear_53_25" x1="889.658" y1="191.021" x2="100.158" y2="952.74" gradientUnits="userSpaceOnUse">
<stop offset="0.048" stop-color="#FFF44F"/>
<stop offset="0.111" stop-color="#FFE847"/>
<stop offset="0.225" stop-color="#FFC830"/>
<stop offset="0.368" stop-color="#FF980E"/>
<stop offset="0.401" stop-color="#FF8B16"/>
<stop offset="0.462" stop-color="#FF672A"/>
<stop offset="0.534" stop-color="#FF3647"/>
<stop offset="0.705" stop-color="#E31587"/>
</linearGradient>
<radialGradient id="paint1_radial_53_25" cx="0" cy="0" r="1" gradientUnits="userSpaceOnUse" gradientTransform="translate(853.193 147.917) scale(991.456 991.456)">
<stop offset="0.129" stop-color="#FFBD4F"/>
<stop offset="0.186" stop-color="#FFAC31"/>
<stop offset="0.247" stop-color="#FF9D17"/>
<stop offset="0.283" stop-color="#FF980E"/>
<stop offset="0.403" stop-color="#FF563B"/>
<stop offset="0.467" stop-color="#FF3750"/>
<stop offset="0.71" stop-color="#F5156C"/>
<stop offset="0.782" stop-color="#EB0878"/>
<stop offset="0.86" stop-color="#E50080"/>
</radialGradient>
<radialGradient id="paint2_radial_53_25" cx="0" cy="0" r="1" gradientUnits="userSpaceOnUse" gradientTransform="translate(490.906 553.251) scale(991.456 991.456)">
<stop offset="0.3" stop-color="#960E18"/>
<stop offset="0.351" stop-color="#B11927" stop-opacity="0.74"/>
<stop offset="0.435" stop-color="#DB293D" stop-opacity="0.343"/>
<stop offset="0.497" stop-color="#F5334B" stop-opacity="0.094"/>
<stop offset="0.53" stop-color="#FF3750" stop-opacity="0"/>
</radialGradient>
<radialGradient id="paint3_radial_53_25" cx="0" cy="0" r="1" gradientUnits="userSpaceOnUse" gradientTransform="translate(610.437 -77.0835) scale(718.268 718.268)">
<stop offset="0.132" stop-color="#FFF44F"/>
<stop offset="0.252" stop-color="#FFDC3E"/>
<stop offset="0.506" stop-color="#FF9D12"/>
<stop offset="0.526" stop-color="#FF980E"/>
</radialGradient>
<radialGradient id="paint4_radial_53_25" cx="0" cy="0" r="1" gradientUnits="userSpaceOnUse" gradientTransform="translate(381.243 812.23) scale(472.076 472.076)">
<stop offset="0.353" stop-color="#3A8EE6"/>
<stop offset="0.472" stop-color="#5C79F0"/>
<stop offset="0.669" stop-color="#9059FF"/>
<stop offset="1" stop-color="#C139E6"/>
</radialGradient>
<radialGradient id="paint5_radial_53_25" cx="0" cy="0" r="1" gradientTransform="matrix(243.282 -58.8179 68.8297 284.83 545.237 472.01)" gradientUnits="userSpaceOnUse">
<stop offset="0.206" stop-color="#9059FF" stop-opacity="0"/>
<stop offset="0.278" stop-color="#8C4FF3" stop-opacity="0.064"/>
<stop offset="0.747" stop-color="#7716A8" stop-opacity="0.45"/>
<stop offset="0.975" stop-color="#6E008B" stop-opacity="0.6"/>
</radialGradient>
<radialGradient id="paint6_radial_53_25" cx="0" cy="0" r="1" gradientUnits="userSpaceOnUse" gradientTransform="translate(478.391 107.349) scale(339.611 339.611)">
<stop stop-color="#FFE226"/>
<stop offset="0.121" stop-color="#FFDB27"/>
<stop offset="0.295" stop-color="#FFC82A"/>
<stop offset="0.502" stop-color="#FFA930"/>
<stop offset="0.732" stop-color="#FF7E37"/>
<stop offset="0.792" stop-color="#FF7139"/>
</radialGradient>
<radialGradient id="paint7_radial_53_25" cx="0" cy="0" r="1" gradientUnits="userSpaceOnUse" gradientTransform="translate(745.33 -108.055) scale(1448.97 1448.97)">
<stop offset="0.113" stop-color="#FFF44F"/>
<stop offset="0.456" stop-color="#FF980E"/>
<stop offset="0.622" stop-color="#FF5634"/>
<stop offset="0.716" stop-color="#FF3647"/>
<stop offset="0.904" stop-color="#E31587"/>
</radialGradient>
<radialGradient id="paint8_radial_53_25" cx="0" cy="0" r="1" gradientTransform="matrix(111.448 1056.12 -693.112 73.2376 623.438 -27.5157)" gradientUnits="userSpaceOnUse">
<stop stop-color="#FFF44F"/>
<stop offset="0.06" stop-color="#FFE847"/>
<stop offset="0.168" stop-color="#FFC830"/>
<stop offset="0.304" stop-color="#FF980E"/>
<stop offset="0.356" stop-color="#FF8B16"/>
<stop offset="0.455" stop-color="#FF672A"/>
<stop offset="0.57" stop-color="#FF3647"/>
<stop offset="0.737" stop-color="#E31587"/>
</radialGradient>
<radialGradient id="paint9_radial_53_25" cx="0" cy="0" r="1" gradientUnits="userSpaceOnUse" gradientTransform="translate(470.39 233.138) scale(904.615 904.615)">
<stop offset="0.137" stop-color="#FFF44F"/>
<stop offset="0.48" stop-color="#FF980E"/>
<stop offset="0.592" stop-color="#FF5634"/>
<stop offset="0.655" stop-color="#FF3647"/>
<stop offset="0.904" stop-color="#E31587"/>
</radialGradient>
<radialGradient id="paint10_radial_53_25" cx="0" cy="0" r="1" gradientUnits="userSpaceOnUse" gradientTransform="translate(709.183 286.087) scale(990.094 990.094)">
<stop offset="0.094" stop-color="#FFF44F"/>
<stop offset="0.231" stop-color="#FFE141"/>
<stop offset="0.509" stop-color="#FFAF1E"/>
<stop offset="0.626" stop-color="#FF980E"/>
</radialGradient>
<linearGradient id="paint11_linear_53_25" x1="880.173" y1="186.947" x2="208.387" y2="858.72" gradientUnits="userSpaceOnUse">
<stop offset="0.167" stop-color="#FFF44F" stop-opacity="0.8"/>
<stop offset="0.266" stop-color="#FFF44F" stop-opacity="0.634"/>
<stop offset="0.489" stop-color="#FFF44F" stop-opacity="0.217"/>
<stop offset="0.6" stop-color="#FFF44F" stop-opacity="0"/>
</linearGradient>
</defs>
</svg>
