<svg width="1024" height="1024" viewBox="0 0 1024 1024" fill="none" xmlns="http://www.w3.org/2000/svg">
<path d="M512.011 749.494C643.186 749.494 749.522 643.153 749.522 511.978C749.522 380.802 643.186 274.462 512.011 274.462C380.836 274.462 274.5 380.802 274.5 511.978C274.5 643.153 380.836 749.494 512.011 749.494Z" fill="white"/>
<path d="M306.323 630.788L100.663 274.574C58.9598 346.778 37.0026 428.691 37 512.073C36.9974 595.456 58.9494 677.369 100.648 749.576C142.345 821.782 202.316 881.738 274.533 923.416C346.75 965.094 428.667 987.024 512.047 987.002L717.707 630.788V630.733C696.877 666.857 666.902 696.859 630.795 717.72C594.69 738.579 553.73 749.564 512.032 749.57C470.335 749.576 429.371 738.603 393.26 717.755C357.149 696.904 327.165 666.913 306.323 630.798V630.788Z" fill="#229342"/>
<path d="M717.685 630.775L512.03 986.989C595.411 987.001 677.326 965.06 749.537 923.371C821.748 881.683 881.71 821.717 923.394 749.503C965.077 677.288 987.015 595.373 987.002 511.992C986.987 428.61 965.02 346.701 923.309 274.501H511.995L511.945 274.536C553.643 274.516 594.61 285.476 630.728 306.312C666.846 327.15 696.841 357.131 717.695 393.239C738.549 429.348 749.527 470.312 749.527 512.01C749.526 553.708 738.545 594.672 717.69 630.78L717.685 630.775Z" fill="#FBC116"/>
<path d="M512.011 700.062C615.858 700.062 700.042 615.878 700.042 512.026C700.042 408.174 615.858 323.995 512.011 323.995C408.164 323.995 323.98 408.179 323.98 512.026C323.98 615.873 408.164 700.062 512.011 700.062Z" fill="#1A73E8"/>
<path d="M512.009 274.516H923.323C881.643 202.299 821.684 142.328 749.475 100.633C677.267 58.9402 595.355 36.9937 511.974 37C428.594 37.0042 346.684 58.9628 274.483 100.668C202.28 142.371 142.33 202.349 100.66 274.571L306.32 630.785L306.375 630.815C285.508 594.713 274.516 553.753 274.503 512.054C274.49 470.356 285.456 429.389 306.3 393.274C327.141 357.156 357.126 327.164 393.239 306.316C429.353 285.468 470.32 274.498 512.019 274.511L512.009 274.516Z" fill="#E33B2E"/>
</svg>
