<svg width="1024" height="1024" viewBox="0 0 1024 1024" fill="none" xmlns="http://www.w3.org/2000/svg">
<g clip-path="url(#clip0_2_83)">
<path d="M109.499 341.383C85.5544 361.742 85.677 397.944 107.712 420.355C130.268 443.296 167.087 442.986 192.067 422.712C378.843 271.126 645.473 271.121 832.254 422.697C857.246 442.978 894.08 443.289 916.645 420.338C938.676 397.931 938.814 361.739 914.886 341.369C682.504 143.539 342.198 143.544 109.499 341.383ZM438.701 674.238C409.225 688.49 409.438 727.233 432.392 750.58L469.386 788.205C492.897 812.118 531.443 812.118 554.954 788.205L592.073 750.453C614.978 727.157 615.252 688.502 585.856 674.245C539.509 651.766 485.183 651.763 438.701 674.238ZM271.98 506.766C247.012 525.86 247.201 562.226 269.238 584.639C291.789 607.575 328.523 606.961 355.243 589.055C450.123 525.475 574.179 525.468 669.066 589.035C695.806 606.948 732.563 607.563 755.128 584.613C777.159 562.206 777.373 525.856 752.429 506.745C610.755 398.206 413.923 398.213 271.98 506.766Z" fill="{{COLOR_FOREGROUND}}"/>
</g>
<defs>
<clipPath id="clip0_2_83">
<rect width="1024" height="1024" fill="white"/>
</clipPath>
</defs>
</svg>
